# xmcd
#
# Track frame offsets:
#	150
#	17183
#	35356
#	49223
#	63852
#	77671
#	89625
#	102410
#	119322
#	133588
#	150269
#	164863
#	179286
#	196587
#	211812
#
# Disc length: 3049 seconds
#
# Revision: 1
# Processed by: cddbd v1.5.2PL0 Copyright (c) Steve Scherf et al.
# Submitted via: audiograbber 1.83.01
#
DISCID=c40be70f
DTITLE=Tracy Lawrence - CB8591
DYEAR=1900
DGENRE=Country
TTITLE0=Tracy Lawrence - Sticks And Stones
TTITLE1=Tracy Lawrence - Today's Lonely Fool
TTITLE2=Tracy Lawrence - Running Behind
TTITLE3=Tracy Lawrence - Alibis
TTITLE4=Tracy Lawrence - Can't Break It To My Heart
TTITLE5=Tracy Lawrence - If The Good Die Young
TTITLE6=Tracy Lawrence - Renegades, Rebels And Rogues
TTITLE7=Tracy Lawrence - I See It Now
TTITLE8=Tracy Lawrence - As Any Fool Can See
TTITLE9=Tracy Lawrence - Texas Tornado
TTITLE10=Tracy Lawrence - If The World Had A Front Porch 
TTITLE11=Tracy Lawrence - Time Marches On 
TTITLE12=Tracy Lawrence - Stars Over Texas
TTITLE13=Tracy Lawrence - Used To The Pain
TTITLE14=Tracy Lawrence - How A Cowgirl Says Goodbye
EXTD=
EXTT0=
EXTT1=
EXTT2=
EXTT3=
EXTT4=
EXTT5=
EXTT6=
EXTT7=
EXTT8=
EXTT9=
EXTT10=
EXTT11=
EXTT12=
EXTT13=
EXTT14=
PLAYORDER=
